<svg width="16" height="17" viewBox="0 0 16 17" fill="none" xmlns="http://www.w3.org/2000/svg">
<circle cx="8" cy="8.5" r="7.5" fill="white" stroke="#1E1E23"/>
<path d="M5.8024 4.67003C5.9264 4.55403 6.0624 4.44403 6.2104 4.34003C6.3624 4.23603 6.5264 4.14403 6.7024 4.06403C6.8824 3.98403 7.0744 3.92203 7.2784 3.87803C7.4864 3.83003 7.7104 3.80603 7.9504 3.80603C8.2664 3.80603 8.5584 3.85203 8.8264 3.94403C9.0984 4.03603 9.3324 4.16603 9.5284 4.33403C9.7244 4.50203 9.8784 4.70603 9.9904 4.94603C10.1024 5.18603 10.1584 5.45603 10.1584 5.75603C10.1584 6.06003 10.1124 6.32203 10.0204 6.54203C9.9324 6.76203 9.8184 6.95603 9.6784 7.12403C9.5424 7.28803 9.3924 7.43203 9.2284 7.55603C9.0684 7.67603 8.9164 7.79003 8.7724 7.89803C8.6284 8.00603 8.5044 8.11403 8.4004 8.22203C8.3004 8.33003 8.2424 8.45003 8.2264 8.58203L8.1184 9.50003H7.3864L7.3144 8.50403C7.2984 8.32403 7.3324 8.16803 7.4164 8.03603C7.5004 7.90003 7.6104 7.77403 7.7464 7.65803C7.8824 7.53803 8.0324 7.42203 8.1964 7.31003C8.3604 7.19403 8.5124 7.06603 8.6524 6.92603C8.7964 6.78603 8.9164 6.62803 9.0124 6.45203C9.1084 6.27203 9.1564 6.05803 9.1564 5.81003C9.1564 5.63803 9.1224 5.48203 9.0544 5.34203C8.9864 5.20203 8.8944 5.08403 8.7784 4.98803C8.6624 4.88803 8.5244 4.81203 8.3644 4.76003C8.2084 4.70803 8.0404 4.68203 7.8604 4.68203C7.6164 4.68203 7.4064 4.71203 7.2304 4.77203C7.0584 4.83203 6.9124 4.89803 6.7924 4.97003C6.6724 5.04203 6.5744 5.10803 6.4984 5.16803C6.4264 5.22803 6.3664 5.25803 6.3184 5.25803C6.2184 5.25803 6.1404 5.21203 6.0844 5.12003L5.8024 4.67003ZM6.9724 11.84C6.9724 11.736 6.9904 11.638 7.0264 11.546C7.0664 11.454 7.1184 11.374 7.1824 11.306C7.2504 11.238 7.3304 11.184 7.4224 11.144C7.5144 11.104 7.6124 11.084 7.7164 11.084C7.8204 11.084 7.9184 11.104 8.0104 11.144C8.1024 11.184 8.1824 11.238 8.2504 11.306C8.3184 11.374 8.3724 11.454 8.4124 11.546C8.4524 11.638 8.4724 11.736 8.4724 11.84C8.4724 11.948 8.4524 12.048 8.4124 12.14C8.3724 12.228 8.3184 12.306 8.2504 12.374C8.1824 12.442 8.1024 12.494 8.0104 12.53C7.9184 12.57 7.8204 12.59 7.7164 12.59C7.6124 12.59 7.5144 12.57 7.4224 12.53C7.3304 12.494 7.2504 12.442 7.1824 12.374C7.1184 12.306 7.0664 12.228 7.0264 12.14C6.9904 12.048 6.9724 11.948 6.9724 11.84Z" fill="#1E1E23"/>
</svg>
